<svg id="visual" viewBox="0 0 960 540" width="960" height="540" xmlns="http://www.w3.org/2000/svg" xmlns:xlink="http://www.w3.org/1999/xlink" version="1.1"><rect x="0" y="0" width="960" height="540" fill="#ffffff"></rect><path d="M0 161L14.5 167.2C29 173.3 58 185.7 87.2 189.8C116.3 194 145.7 190 174.8 183.8C204 177.7 233 169.3 262 165.8C291 162.3 320 163.7 349 166.7C378 169.7 407 174.3 436.2 180.3C465.3 186.3 494.7 193.7 523.8 189.5C553 185.3 582 169.7 611 162C640 154.3 669 154.7 698 158C727 161.3 756 167.7 785.2 169.8C814.3 172 843.7 170 872.8 173.5C902 177 931 186 945.5 190.5L960 195L960 0L945.5 0C931 0 902 0 872.8 0C843.7 0 814.3 0 785.2 0C756 0 727 0 698 0C669 0 640 0 611 0C582 0 553 0 523.8 0C494.7 0 465.3 0 436.2 0C407 0 378 0 349 0C320 0 291 0 262 0C233 0 204 0 174.8 0C145.7 0 116.3 0 87.2 0C58 0 29 0 14.5 0L0 0Z" fill="#0d3d8a"></path><path d="M0 127L14.5 135.5C29 144 58 161 87.2 162.5C116.3 164 145.7 150 174.8 147.7C204 145.3 233 154.7 262 156.2C291 157.7 320 151.3 349 150.7C378 150 407 155 436.2 155.2C465.3 155.3 494.7 150.7 523.8 153C553 155.3 582 164.7 611 169C640 173.3 669 172.7 698 166C727 159.3 756 146.7 785.2 137.5C814.3 128.3 843.7 122.7 872.8 127.3C902 132 931 147 945.5 154.5L960 162L960 0L945.5 0C931 0 902 0 872.8 0C843.7 0 814.3 0 785.2 0C756 0 727 0 698 0C669 0 640 0 611 0C582 0 553 0 523.8 0C494.7 0 465.3 0 436.2 0C407 0 378 0 349 0C320 0 291 0 262 0C233 0 204 0 174.8 0C145.7 0 116.3 0 87.2 0C58 0 29 0 14.5 0L0 0Z" fill="#0b459e"></path><path d="M0 134L14.5 131.7C29 129.3 58 124.7 87.2 124C116.3 123.3 145.7 126.7 174.8 122.3C204 118 233 106 262 105C291 104 320 114 349 117.3C378 120.7 407 117.3 436.2 112.8C465.3 108.3 494.7 102.7 523.8 105C553 107.3 582 117.7 611 125.5C640 133.3 669 138.7 698 134.2C727 129.7 756 115.3 785.2 108C814.3 100.7 843.7 100.3 872.8 99.5C902 98.7 931 97.3 945.5 96.7L960 96L960 0L945.5 0C931 0 902 0 872.8 0C843.7 0 814.3 0 785.2 0C756 0 727 0 698 0C669 0 640 0 611 0C582 0 553 0 523.8 0C494.7 0 465.3 0 436.2 0C407 0 378 0 349 0C320 0 291 0 262 0C233 0 204 0 174.8 0C145.7 0 116.3 0 87.2 0C58 0 29 0 14.5 0L0 0Z" fill="#0a4db2"></path><path d="M0 117L14.5 116C29 115 58 113 87.2 105.3C116.3 97.7 145.7 84.3 174.8 77.5C204 70.7 233 70.3 262 77C291 83.7 320 97.3 349 99.8C378 102.3 407 93.7 436.2 94.2C465.3 94.7 494.7 104.3 523.8 107.7C553 111 582 108 611 101.3C640 94.7 669 84.3 698 77C727 69.7 756 65.3 785.2 66C814.3 66.7 843.7 72.3 872.8 78.2C902 84 931 90 945.5 93L960 96L960 0L945.5 0C931 0 902 0 872.8 0C843.7 0 814.3 0 785.2 0C756 0 727 0 698 0C669 0 640 0 611 0C582 0 553 0 523.8 0C494.7 0 465.3 0 436.2 0C407 0 378 0 349 0C320 0 291 0 262 0C233 0 204 0 174.8 0C145.7 0 116.3 0 87.2 0C58 0 29 0 14.5 0L0 0Z" fill="#0a55c6"></path><path d="M0 70L14.5 72.5C29 75 58 80 87.2 80.5C116.3 81 145.7 77 174.8 70.3C204 63.7 233 54.3 262 48.7C291 43 320 41 349 45.7C378 50.3 407 61.7 436.2 67.2C465.3 72.7 494.7 72.3 523.8 71.2C553 70 582 68 611 67.2C640 66.3 669 66.7 698 70C727 73.3 756 79.7 785.2 73.7C814.3 67.7 843.7 49.3 872.8 47.8C902 46.3 931 61.7 945.5 69.3L960 77L960 0L945.5 0C931 0 902 0 872.8 0C843.7 0 814.3 0 785.2 0C756 0 727 0 698 0C669 0 640 0 611 0C582 0 553 0 523.8 0C494.7 0 465.3 0 436.2 0C407 0 378 0 349 0C320 0 291 0 262 0C233 0 204 0 174.8 0C145.7 0 116.3 0 87.2 0C58 0 29 0 14.5 0L0 0Z" fill="#0d5edc"></path><path d="M0 9L14.5 13.3C29 17.7 58 26.3 87.2 27.3C116.3 28.3 145.7 21.7 174.8 23.7C204 25.7 233 36.3 262 36.7C291 37 320 27 349 28.2C378 29.3 407 41.7 436.2 44.2C465.3 46.7 494.7 39.3 523.8 39.7C553 40 582 48 611 47C640 46 669 36 698 33.3C727 30.7 756 35.3 785.2 38.7C814.3 42 843.7 44 872.8 38.2C902 32.3 931 18.7 945.5 11.8L960 5L960 0L945.5 0C931 0 902 0 872.8 0C843.7 0 814.3 0 785.2 0C756 0 727 0 698 0C669 0 640 0 611 0C582 0 553 0 523.8 0C494.7 0 465.3 0 436.2 0C407 0 378 0 349 0C320 0 291 0 262 0C233 0 204 0 174.8 0C145.7 0 116.3 0 87.2 0C58 0 29 0 14.5 0L0 0Z" fill="#1266f1"></path></svg>