<svg id="visual" viewBox="0 0 960 540" width="960" height="540" xmlns="http://www.w3.org/2000/svg" xmlns:xlink="http://www.w3.org/1999/xlink" version="1.1"><path d="M0 167L14.5 170.8C29 174.7 58 182.3 87.2 182C116.3 181.7 145.7 173.3 174.8 166.3C204 159.3 233 153.7 262 155.5C291 157.3 320 166.7 349 171.3C378 176 407 176 436.2 180.2C465.3 184.3 494.7 192.7 523.8 191C553 189.3 582 177.7 611 168C640 158.3 669 150.7 698 156.7C727 162.7 756 182.3 785.2 188.3C814.3 194.3 843.7 186.7 872.8 184.7C902 182.7 931 186.3 945.5 188.2L960 190L960 0L945.5 0C931 0 902 0 872.8 0C843.7 0 814.3 0 785.2 0C756 0 727 0 698 0C669 0 640 0 611 0C582 0 553 0 523.8 0C494.7 0 465.3 0 436.2 0C407 0 378 0 349 0C320 0 291 0 262 0C233 0 204 0 174.8 0C145.7 0 116.3 0 87.2 0C58 0 29 0 14.5 0L0 0Z" fill="#0d3d8a"></path><path d="M0 166L14.5 160C29 154 58 142 87.2 138.7C116.3 135.3 145.7 140.7 174.8 145.3C204 150 233 154 262 153C291 152 320 146 349 143.2C378 140.3 407 140.7 436.2 145.3C465.3 150 494.7 159 523.8 160.2C553 161.3 582 154.7 611 147.3C640 140 669 132 698 135.3C727 138.7 756 153.3 785.2 157.5C814.3 161.7 843.7 155.3 872.8 153.3C902 151.3 931 153.7 945.5 154.8L960 156L960 0L945.5 0C931 0 902 0 872.8 0C843.7 0 814.3 0 785.2 0C756 0 727 0 698 0C669 0 640 0 611 0C582 0 553 0 523.8 0C494.7 0 465.3 0 436.2 0C407 0 378 0 349 0C320 0 291 0 262 0C233 0 204 0 174.8 0C145.7 0 116.3 0 87.2 0C58 0 29 0 14.5 0L0 0Z" fill="#0b459e"></path><path d="M0 143L14.5 135.3C29 127.7 58 112.3 87.2 110.8C116.3 109.3 145.7 121.7 174.8 126.5C204 131.3 233 128.7 262 129.5C291 130.3 320 134.7 349 131.3C378 128 407 117 436.2 112.7C465.3 108.3 494.7 110.7 523.8 109.2C553 107.7 582 102.3 611 98.2C640 94 669 91 698 98C727 105 756 122 785.2 124.7C814.3 127.3 843.7 115.7 872.8 110.2C902 104.7 931 105.3 945.5 105.7L960 106L960 0L945.5 0C931 0 902 0 872.8 0C843.7 0 814.3 0 785.2 0C756 0 727 0 698 0C669 0 640 0 611 0C582 0 553 0 523.8 0C494.7 0 465.3 0 436.2 0C407 0 378 0 349 0C320 0 291 0 262 0C233 0 204 0 174.8 0C145.7 0 116.3 0 87.2 0C58 0 29 0 14.5 0L0 0Z" fill="#0a4db2"></path><path d="M0 61L14.5 69.8C29 78.7 58 96.3 87.2 104.2C116.3 112 145.7 110 174.8 108C204 106 233 104 262 97.3C291 90.7 320 79.3 349 72.8C378 66.3 407 64.7 436.2 68C465.3 71.3 494.7 79.7 523.8 80.7C553 81.7 582 75.3 611 79.2C640 83 669 97 698 101.3C727 105.7 756 100.3 785.2 97.7C814.3 95 843.7 95 872.8 92.3C902 89.7 931 84.3 945.5 81.7L960 79L960 0L945.5 0C931 0 902 0 872.8 0C843.7 0 814.3 0 785.2 0C756 0 727 0 698 0C669 0 640 0 611 0C582 0 553 0 523.8 0C494.7 0 465.3 0 436.2 0C407 0 378 0 349 0C320 0 291 0 262 0C233 0 204 0 174.8 0C145.7 0 116.3 0 87.2 0C58 0 29 0 14.5 0L0 0Z" fill="#0a55c6"></path><path d="M0 83L14.5 80C29 77 58 71 87.2 63.2C116.3 55.3 145.7 45.7 174.8 46.7C204 47.7 233 59.3 262 63C291 66.7 320 62.3 349 57.7C378 53 407 48 436.2 48.8C465.3 49.7 494.7 56.3 523.8 60.8C553 65.3 582 67.7 611 63.5C640 59.3 669 48.7 698 47C727 45.3 756 52.7 785.2 52.5C814.3 52.3 843.7 44.7 872.8 41.8C902 39 931 41 945.5 42L960 43L960 0L945.5 0C931 0 902 0 872.8 0C843.7 0 814.3 0 785.2 0C756 0 727 0 698 0C669 0 640 0 611 0C582 0 553 0 523.8 0C494.7 0 465.3 0 436.2 0C407 0 378 0 349 0C320 0 291 0 262 0C233 0 204 0 174.8 0C145.7 0 116.3 0 87.2 0C58 0 29 0 14.5 0L0 0Z" fill="#0d5edc"></path><path d="M0 31L14.5 33.8C29 36.7 58 42.3 87.2 44.8C116.3 47.3 145.7 46.7 174.8 46.2C204 45.7 233 45.3 262 45C291 44.7 320 44.3 349 41.8C378 39.3 407 34.7 436.2 28.5C465.3 22.3 494.7 14.7 523.8 18.3C553 22 582 37 611 38.7C640 40.3 669 28.7 698 21C727 13.3 756 9.7 785.2 14.3C814.3 19 843.7 32 872.8 34.5C902 37 931 29 945.5 25L960 21L960 0L945.5 0C931 0 902 0 872.8 0C843.7 0 814.3 0 785.2 0C756 0 727 0 698 0C669 0 640 0 611 0C582 0 553 0 523.8 0C494.7 0 465.3 0 436.2 0C407 0 378 0 349 0C320 0 291 0 262 0C233 0 204 0 174.8 0C145.7 0 116.3 0 87.2 0C58 0 29 0 14.5 0L0 0Z" fill="#1266f1"></path></svg>