<svg id="visual" viewBox="0 0 960 540" width="960" height="540" xmlns="http://www.w3.org/2000/svg" xmlns:xlink="http://www.w3.org/1999/xlink" version="1.1"><path d="M0 147L14.5 149.7C29 152.3 58 157.7 87.2 147.7C116.3 137.7 145.7 112.3 174.8 112.3C204 112.3 233 137.7 262 143.2C291 148.7 320 134.3 349 129C378 123.7 407 127.3 436.2 120.2C465.3 113 494.7 95 523.8 98.5C553 102 582 127 611 145.8C640 164.7 669 177.3 698 172.8C727 168.3 756 146.7 785.2 134C814.3 121.3 843.7 117.7 872.8 122.2C902 126.7 931 139.3 945.5 145.7L960 152L960 0L945.5 0C931 0 902 0 872.8 0C843.7 0 814.3 0 785.2 0C756 0 727 0 698 0C669 0 640 0 611 0C582 0 553 0 523.8 0C494.7 0 465.3 0 436.2 0C407 0 378 0 349 0C320 0 291 0 262 0C233 0 204 0 174.8 0C145.7 0 116.3 0 87.2 0C58 0 29 0 14.5 0L0 0Z" fill="#6198ff"></path><path d="M0 222L14.5 218.5C29 215 58 208 87.2 193.7C116.3 179.3 145.7 157.7 174.8 164C204 170.3 233 204.7 262 209.2C291 213.7 320 188.3 349 179.3C378 170.3 407 177.7 436.2 173.2C465.3 168.7 494.7 152.3 523.8 157.7C553 163 582 190 611 211.7C640 233.3 669 249.7 698 240.7C727 231.7 756 197.3 785.2 182C814.3 166.7 843.7 170.3 872.8 177.5C902 184.7 931 195.3 945.5 200.7L960 206L960 150L945.5 143.7C931 137.3 902 124.7 872.8 120.2C843.7 115.7 814.3 119.3 785.2 132C756 144.7 727 166.3 698 170.8C669 175.3 640 162.7 611 143.8C582 125 553 100 523.8 96.5C494.7 93 465.3 111 436.2 118.2C407 125.3 378 121.7 349 127C320 132.3 291 146.7 262 141.2C233 135.7 204 110.3 174.8 110.3C145.7 110.3 116.3 135.7 87.2 145.7C58 155.7 29 150.3 14.5 147.7L0 145Z" fill="#4385ff"></path><path d="M0 314L14.5 312.2C29 310.3 58 306.7 87.2 286.8C116.3 267 145.7 231 174.8 228.3C204 225.7 233 256.3 262 262.7C291 269 320 251 349 249.2C378 247.3 407 261.7 436.2 252.7C465.3 243.7 494.7 211.3 523.8 216.8C553 222.3 582 265.7 611 286.3C640 307 669 305 698 292.3C727 279.7 756 256.3 785.2 251C814.3 245.7 843.7 258.3 872.8 264.7C902 271 931 271 945.5 271L960 271L960 204L945.5 198.7C931 193.3 902 182.7 872.8 175.5C843.7 168.3 814.3 164.7 785.2 180C756 195.3 727 229.7 698 238.7C669 247.7 640 231.3 611 209.7C582 188 553 161 523.8 155.7C494.7 150.3 465.3 166.7 436.2 171.2C407 175.7 378 168.3 349 177.3C320 186.3 291 211.7 262 207.2C233 202.7 204 168.3 174.8 162C145.7 155.7 116.3 177.3 87.2 191.7C58 206 29 213 14.5 216.5L0 220Z" fill="#2071ff"></path><path d="M0 422L14.5 412.2C29 402.3 58 382.7 87.2 359.3C116.3 336 145.7 309 174.8 309.8C204 310.7 233 339.3 262 341.2C291 343 320 318 349 313.5C378 309 407 325 436.2 326.7C465.3 328.3 494.7 315.7 523.8 327.3C553 339 582 375 611 392.2C640 409.3 669 407.7 698 393.3C727 379 756 352 785.2 347.5C814.3 343 843.7 361 872.8 361.8C902 362.7 931 346.3 945.5 338.2L960 330L960 269L945.5 269C931 269 902 269 872.8 262.7C843.7 256.3 814.3 243.7 785.2 249C756 254.3 727 277.7 698 290.3C669 303 640 305 611 284.3C582 263.7 553 220.3 523.8 214.8C494.7 209.3 465.3 241.7 436.2 250.7C407 259.7 378 245.3 349 247.2C320 249 291 267 262 260.7C233 254.3 204 223.7 174.8 226.3C145.7 229 116.3 265 87.2 284.8C58 304.7 29 308.3 14.5 310.2L0 312Z" fill="#0061f1"></path><path d="M0 455L14.5 445C29 435 58 415 87.2 397C116.3 379 145.7 363 174.8 368.5C204 374 233 401 262 399.2C291 397.3 320 366.7 349 360.3C378 354 407 372 436.2 377.3C465.3 382.7 494.7 375.3 523.8 387.8C553 400.3 582 432.7 611 445.3C640 458 669 451 698 433C727 415 756 386 785.2 381.5C814.3 377 843.7 397 872.8 398C902 399 931 381 945.5 372L960 363L960 328L945.5 336.2C931 344.3 902 360.7 872.8 359.8C843.7 359 814.3 341 785.2 345.5C756 350 727 377 698 391.3C669 405.7 640 407.3 611 390.2C582 373 553 337 523.8 325.3C494.7 313.7 465.3 326.3 436.2 324.7C407 323 378 307 349 311.5C320 316 291 341 262 339.2C233 337.3 204 308.7 174.8 307.8C145.7 307 116.3 334 87.2 357.3C58 380.7 29 400.3 14.5 410.2L0 420Z" fill="#0056d6"></path><path d="M0 541L14.5 541C29 541 58 541 87.2 541C116.3 541 145.7 541 174.8 541C204 541 233 541 262 541C291 541 320 541 349 541C378 541 407 541 436.2 541C465.3 541 494.7 541 523.8 541C553 541 582 541 611 541C640 541 669 541 698 541C727 541 756 541 785.2 541C814.3 541 843.7 541 872.8 541C902 541 931 541 945.5 541L960 541L960 361L945.5 370C931 379 902 397 872.8 396C843.7 395 814.3 375 785.2 379.5C756 384 727 413 698 431C669 449 640 456 611 443.3C582 430.7 553 398.3 523.8 385.8C494.7 373.3 465.3 380.7 436.2 375.3C407 370 378 352 349 358.3C320 364.7 291 395.3 262 397.2C233 399 204 372 174.8 366.5C145.7 361 116.3 377 87.2 395C58 413 29 433 14.5 443L0 453Z" fill="#004cbb"></path></svg>